<!-- Generated by IcoMoon.io -->
<svg version="1.1" xmlns="http://www.w3.org/2000/svg" width="47" height="32" viewBox="0 0 47 32">
<title>Frame</title>
<path d="M0.369 20.045v-15.43h1.448v13.978h9.466v1.451h-10.914z"></path>
<path d="M13.618 2.81c1.087 0 2.107 0.207 3.065 0.622 0.956 0.415 1.794 0.982 2.51 1.698 0.714 0.718 1.279 1.556 1.693 2.516 0.414 0.959 0.62 1.984 0.62 3.073s-0.206 2.113-0.62 3.073c-0.414 0.959-0.979 1.802-1.693 2.528-0.716 0.726-1.552 1.296-2.51 1.711s-1.979 0.623-3.065 0.623c-1.087 0-2.107-0.208-3.065-0.623-0.956-0.415-1.793-0.985-2.51-1.711s-1.279-1.569-1.693-2.528c-0.414-0.959-0.62-1.984-0.62-3.073s0.206-2.113 0.62-3.073c0.414-0.959 0.979-1.798 1.693-2.516 0.716-0.716 1.552-1.283 2.51-1.698s1.981-0.622 3.065-0.622zM13.618 4.261c-0.879 0-1.712 0.169-2.497 0.506s-1.47 0.8-2.056 1.387c-0.586 0.587-1.047 1.275-1.383 2.062s-0.505 1.62-0.505 2.503c0 0.9 0.168 1.741 0.505 2.528s0.798 1.474 1.383 2.062c0.586 0.587 1.272 1.050 2.056 1.387s1.616 0.506 2.497 0.506c0.881 0 1.71-0.169 2.497-0.506 0.784-0.337 1.47-0.8 2.056-1.387s1.051-1.275 1.397-2.062c0.344-0.786 0.518-1.63 0.518-2.528 0-0.881-0.172-1.715-0.518-2.503-0.346-0.786-0.811-1.474-1.397-2.062s-1.272-1.050-2.056-1.387c-0.784-0.337-1.616-0.506-2.497-0.506z"></path>
<path d="M25.848 20.019v4.538h-1.423v-4.538h-19.284v-1.451h19.284v-6.043c0-1.090 0.206-2.113 0.62-3.073 0.414-0.959 0.979-1.798 1.694-2.514 0.716-0.718 1.551-1.283 2.51-1.698 0.956-0.415 1.979-0.622 3.065-0.622h1.501v1.427h-1.501c-0.879 0-1.712 0.172-2.496 0.519s-1.47 0.813-2.056 1.4c-0.586 0.587-1.053 1.275-1.397 2.062-0.346 0.786-0.518 1.62-0.518 2.503v6.043h7.966v1.451l-7.964-0.004z"></path>
<path d="M39.013 4.642h7.966v1.427h-7.966v6.067c0 0.881 0.172 1.717 0.518 2.503 0.344 0.786 0.811 1.474 1.397 2.062s1.272 1.050 2.056 1.387c0.784 0.337 1.616 0.506 2.496 0.506h1.501v1.451h-1.501c-1.087 0-2.107-0.207-3.065-0.623-0.956-0.415-1.794-0.982-2.51-1.698s-1.28-1.556-1.693-2.514c-0.414-0.961-0.622-1.984-0.622-3.073v-6.069l-3.776-0.025v-1.427l3.776 0.025v-4.64h1.423v4.642z"></path>
<path d="M1.816 2.81h-1.448v2.52h1.448v-2.52z"></path>
<path d="M2.272 28.278v-0.163c0-0.055 0.009-0.095 0.030-0.119s0.047-0.036 0.081-0.036 0.060 0.011 0.081 0.036c0.021 0.025 0.030 0.064 0.030 0.119v0.646c0 0.057-0.009 0.099-0.030 0.121s-0.047 0.036-0.081 0.036c-0.030 0-0.055-0.011-0.076-0.034s-0.032-0.059-0.036-0.108c-0.009-0.155-0.089-0.294-0.242-0.413-0.204-0.165-0.438-0.246-0.699-0.246-0.172 0-0.333 0.040-0.486 0.119-0.113 0.057-0.204 0.127-0.27 0.21-0.117 0.144-0.21 0.305-0.278 0.48-0.049 0.129-0.074 0.277-0.074 0.438v0.407c0 0.349 0.121 0.65 0.361 0.906s0.52 0.385 0.837 0.385c0.191 0 0.361-0.044 0.512-0.131s0.297-0.218 0.438-0.394c0.030-0.040 0.064-0.059 0.1-0.059 0.032 0 0.057 0.009 0.077 0.030 0.019 0.021 0.028 0.046 0.028 0.078 0 0.042-0.038 0.108-0.113 0.195-0.146 0.171-0.308 0.298-0.489 0.385-0.181 0.085-0.365 0.129-0.55 0.129-0.161 0-0.325-0.032-0.489-0.097-0.127-0.049-0.232-0.108-0.316-0.174s-0.185-0.178-0.306-0.337c-0.121-0.157-0.204-0.305-0.248-0.438s-0.066-0.28-0.066-0.441v-0.474c0-0.229 0.059-0.464 0.176-0.703s0.278-0.424 0.482-0.551c0.204-0.127 0.425-0.193 0.663-0.193 0.369-0.002 0.684 0.129 0.951 0.392z"></path>
<path d="M4.793 28.193v2.782h0.578c0.053 0 0.091 0.011 0.113 0.032s0.034 0.049 0.034 0.085c0 0.034-0.011 0.061-0.034 0.083s-0.060 0.034-0.113 0.034h-1.38c-0.053 0-0.091-0.011-0.113-0.034s-0.034-0.049-0.034-0.083c0-0.036 0.011-0.063 0.034-0.085 0.023-0.021 0.060-0.032 0.113-0.032h0.578v-2.782h-0.911v0.807c0 0.057-0.009 0.099-0.030 0.121-0.021 0.024-0.047 0.036-0.081 0.036-0.032 0-0.059-0.011-0.079-0.036s-0.032-0.064-0.032-0.121v-1.040h2.493v1.040c0 0.057-0.009 0.099-0.030 0.121s-0.047 0.036-0.081 0.036c-0.034 0-0.060-0.011-0.081-0.036s-0.030-0.064-0.030-0.121v-0.807h-0.913z"></path>
<path d="M7.163 28.193l0.96 1.851 0.96-1.851h-0.204c-0.125 0-0.189-0.040-0.189-0.118s0.062-0.118 0.189-0.118h0.593c0.123 0 0.185 0.040 0.185 0.118s-0.062 0.118-0.185 0.118h-0.132l-1.327 2.548c-0.091 0.176-0.187 0.313-0.291 0.413-0.104 0.099-0.236 0.148-0.397 0.148-0.089 0-0.174-0.011-0.257-0.034s-0.132-0.047-0.149-0.076c-0.017-0.028-0.025-0.079-0.025-0.153v-0.335c0-0.127 0.036-0.191 0.108-0.191 0.076 0 0.113 0.059 0.113 0.178v0.335c0.091 0.026 0.166 0.040 0.229 0.040 0.098 0 0.181-0.030 0.246-0.093s0.14-0.174 0.223-0.339l0.172-0.333-1.092-2.107h-0.144c-0.123 0-0.185-0.040-0.185-0.118s0.062-0.118 0.185-0.118h0.618c0.123 0 0.185 0.040 0.185 0.118s-0.062 0.118-0.185 0.118h-0.204z"></path>
<path d="M12.675 31.206h-2.417v0.614c0 0.119-0.038 0.18-0.113 0.18-0.072 0-0.11-0.063-0.11-0.189v-0.646c0-0.078 0.008-0.129 0.025-0.153s0.049-0.040 0.1-0.044c0.121-0.008 0.246-0.070 0.374-0.186s0.221-0.258 0.276-0.425c0.055-0.167 0.081-0.415 0.081-0.745v-1.421h-0.304c-0.123 0-0.185-0.040-0.185-0.117s0.062-0.118 0.185-0.118h2.122c0.125 0 0.189 0.040 0.189 0.118s-0.062 0.117-0.189 0.117h-0.231v2.782h0.231c0.079 0 0.13 0.010 0.153 0.027s0.034 0.072 0.034 0.165v0.646c0 0.125-0.036 0.19-0.108 0.19-0.076 0-0.113-0.061-0.113-0.18v-0.614zM11.114 28.193v1.421c0 0.673-0.151 1.128-0.454 1.361h1.593v-2.782h-1.14z"></path>
<path d="M13.785 30.973v-2.782h-0.299c-0.098 0-0.149-0.040-0.149-0.117s0.049-0.118 0.149-0.118h0.934c0.1 0 0.151 0.040 0.151 0.118s-0.051 0.117-0.151 0.117h-0.41v2.679l1.642-2.912h0.582c0.098 0 0.149 0.040 0.149 0.118s-0.049 0.118-0.149 0.118h-0.299v2.782h0.299c0.098 0 0.149 0.040 0.149 0.118s-0.049 0.117-0.149 0.117h-0.822c-0.098 0-0.149-0.040-0.149-0.117s0.049-0.118 0.149-0.118h0.299v-2.673l-1.64 2.907h-0.586c-0.098 0-0.149-0.040-0.149-0.118s0.049-0.117 0.149-0.117h0.3z"></path>
<path d="M18.27 29.758c-0.197 0.099-0.37 0.235-0.522 0.411s-0.365 0.521-0.641 1.038h-0.297c-0.053 0-0.091-0.011-0.113-0.034s-0.034-0.049-0.034-0.084c0-0.036 0.011-0.062 0.034-0.085 0.023-0.021 0.060-0.032 0.113-0.032h0.17c0.249-0.447 0.431-0.745 0.542-0.889 0.113-0.144 0.249-0.275 0.408-0.389-0.276-0.099-0.472-0.22-0.59-0.367s-0.176-0.303-0.176-0.47c0-0.231 0.094-0.44 0.285-0.623 0.189-0.184 0.423-0.277 0.701-0.277h1.346c0.053 0 0.091 0.011 0.113 0.032s0.034 0.049 0.034 0.085c0 0.036-0.011 0.062-0.034 0.085s-0.060 0.032-0.113 0.032h-0.299v2.782h0.299c0.053 0 0.091 0.011 0.113 0.032s0.034 0.049 0.034 0.085c0 0.034-0.011 0.061-0.034 0.083s-0.060 0.034-0.113 0.034h-0.934c-0.055 0-0.095-0.011-0.117-0.034s-0.034-0.049-0.034-0.083c0-0.036 0.011-0.063 0.034-0.085 0.023-0.021 0.062-0.032 0.117-0.032h0.41v-1.216h-0.705zM18.976 28.193h-0.818c-0.214 0-0.395 0.070-0.544 0.21s-0.223 0.288-0.223 0.443c0 0.104 0.036 0.205 0.108 0.305s0.187 0.188 0.344 0.261c0.159 0.074 0.335 0.112 0.529 0.112h0.607v-1.332h-0.002z"></path>
<path d="M26.243 31.206h-2.417v0.614c0 0.119-0.038 0.18-0.113 0.18-0.072 0-0.108-0.063-0.108-0.189v-0.646c0-0.078 0.008-0.129 0.024-0.153s0.049-0.040 0.1-0.044c0.121-0.008 0.246-0.070 0.374-0.186 0.131-0.118 0.221-0.258 0.276-0.425s0.081-0.415 0.081-0.745v-1.421h-0.304c-0.123 0-0.185-0.040-0.185-0.117s0.062-0.118 0.185-0.118h2.122c0.125 0 0.187 0.040 0.187 0.118s-0.062 0.117-0.187 0.117h-0.231v2.782h0.231c0.079 0 0.131 0.010 0.153 0.027s0.034 0.072 0.034 0.165v0.646c0 0.125-0.036 0.19-0.109 0.19-0.076 0-0.113-0.061-0.113-0.18v-0.614zM24.682 28.193v1.421c0 0.673-0.151 1.128-0.454 1.361h1.593v-2.782h-1.14z"></path>
<path d="M27.354 30.973v-2.782h-0.298c-0.098 0-0.149-0.040-0.149-0.117s0.049-0.118 0.149-0.118h0.932c0.1 0 0.151 0.040 0.151 0.118s-0.051 0.117-0.151 0.117h-0.41v2.679l1.642-2.912h0.582c0.098 0 0.149 0.040 0.149 0.118s-0.049 0.118-0.149 0.118h-0.299v2.782h0.299c0.098 0 0.149 0.040 0.149 0.118s-0.049 0.117-0.149 0.117h-0.822c-0.098 0-0.149-0.040-0.149-0.117s0.049-0.118 0.149-0.118h0.299v-2.673l-1.641 2.907h-0.586c-0.098 0-0.149-0.040-0.149-0.118s0.049-0.117 0.149-0.117h0.302z"></path>
<path d="M32.379 29.52c0.474 0.118 0.711 0.389 0.711 0.813 0 0.263-0.1 0.489-0.303 0.68s-0.523 0.286-0.968 0.286c-0.355 0-0.665-0.061-0.93-0.184s-0.397-0.224-0.397-0.303c0-0.040 0.013-0.074 0.040-0.097s0.051-0.036 0.074-0.036c0.026 0 0.059 0.011 0.098 0.036 0.225 0.135 0.41 0.227 0.559 0.277s0.344 0.074 0.586 0.074c0.331 0 0.578-0.070 0.745-0.21s0.249-0.316 0.249-0.529c0-0.154-0.053-0.286-0.161-0.398s-0.242-0.184-0.406-0.216c-0.163-0.032-0.399-0.049-0.703-0.049h-0.153c-0.125 0-0.187-0.040-0.187-0.117 0-0.080 0.062-0.119 0.187-0.119h0.153c0.767 0 1.149-0.224 1.149-0.671 0-0.201-0.083-0.358-0.249-0.47s-0.374-0.169-0.622-0.169c-0.291 0-0.52 0.079-0.684 0.241s-0.27 0.364-0.317 0.61c-0.015 0.080-0.049 0.119-0.104 0.119-0.068 0-0.104-0.036-0.104-0.108 0-0.047 0.008-0.133 0.024-0.256 0.008-0.072 0.011-0.131 0.011-0.178 0-0.013-0.002-0.104-0.008-0.275-0.008-0.161-0.011-0.243-0.011-0.244 0-0.072 0.034-0.108 0.1-0.108 0.059 0 0.094 0.053 0.111 0.161 0.017 0.114 0.051 0.169 0.1 0.169 0.017 0 0.042-0.013 0.074-0.042 0.249-0.216 0.525-0.324 0.829-0.324 0.35 0 0.62 0.081 0.809 0.246s0.285 0.369 0.285 0.616c0.002 0.366-0.195 0.623-0.59 0.775z"></path>
<path d="M35.944 30.122h-1.463l-0.299 0.853h0.427c0.053 0 0.091 0.011 0.113 0.032s0.034 0.049 0.034 0.085c0 0.034-0.011 0.061-0.034 0.083s-0.060 0.034-0.113 0.034h-0.832c-0.053 0-0.091-0.011-0.113-0.034s-0.034-0.049-0.034-0.083c0-0.036 0.011-0.063 0.034-0.085 0.023-0.021 0.061-0.032 0.113-0.032h0.172l0.983-2.782h-0.658c-0.053 0-0.091-0.012-0.113-0.032s-0.034-0.049-0.034-0.085 0.011-0.063 0.034-0.085c0.023-0.021 0.061-0.032 0.113-0.032h1.121l1.087 3.015h0.172c0.053 0 0.091 0.011 0.113 0.032s0.034 0.049 0.034 0.085c0 0.034-0.011 0.061-0.034 0.084s-0.061 0.034-0.113 0.034h-0.83c-0.055 0-0.094-0.011-0.117-0.034s-0.034-0.049-0.034-0.084c0-0.036 0.011-0.062 0.034-0.085 0.023-0.021 0.062-0.032 0.117-0.032h0.423l-0.304-0.851zM35.861 29.889l-0.614-1.696h-0.081l-0.595 1.696h1.291z"></path>
<path d="M37.529 30.973v-2.782h-0.299c-0.098 0-0.149-0.040-0.149-0.117s0.049-0.118 0.149-0.118h0.932c0.1 0 0.151 0.040 0.151 0.118s-0.051 0.117-0.151 0.117h-0.41v2.679l1.642-2.912h0.582c0.098 0 0.149 0.040 0.149 0.118s-0.049 0.118-0.149 0.118h-0.298v2.782h0.298c0.098 0 0.149 0.040 0.149 0.118s-0.049 0.117-0.149 0.117h-0.822c-0.098 0-0.149-0.040-0.149-0.117s0.049-0.118 0.149-0.118h0.299v-2.674l-1.64 2.907h-0.582c-0.098 0-0.149-0.040-0.149-0.118s0.049-0.117 0.149-0.117h0.299zM38.015 26.869c0.032 0 0.056 0.009 0.077 0.028 0.019 0.019 0.030 0.055 0.034 0.104 0.011 0.106 0.068 0.199 0.172 0.282 0.102 0.083 0.236 0.125 0.402 0.125 0.165 0 0.299-0.042 0.401-0.125 0.104-0.083 0.161-0.178 0.17-0.282 0.006-0.049 0.015-0.083 0.032-0.101 0.023-0.023 0.049-0.034 0.079-0.034 0.032 0 0.059 0.011 0.081 0.034s0.034 0.055 0.034 0.093c0 0.167-0.072 0.316-0.216 0.449s-0.338 0.199-0.582 0.199c-0.244 0-0.438-0.066-0.582-0.199s-0.216-0.282-0.216-0.449c0-0.040 0.011-0.070 0.032-0.093 0.021-0.021 0.047-0.032 0.079-0.032z"></path>
<path d="M42.749 29.635h-1.476v1.338h0.299c0.053 0 0.091 0.011 0.113 0.032s0.034 0.049 0.034 0.085c0 0.034-0.011 0.061-0.034 0.084s-0.060 0.034-0.113 0.034h-0.773c-0.053 0-0.091-0.011-0.113-0.034s-0.034-0.049-0.034-0.084c0-0.036 0.011-0.062 0.034-0.085 0.023-0.021 0.061-0.032 0.113-0.032h0.251v-2.782h-0.138c-0.055 0-0.094-0.011-0.117-0.032s-0.034-0.049-0.034-0.085c0-0.036 0.011-0.063 0.034-0.085 0.023-0.021 0.062-0.032 0.117-0.032h0.66c0.053 0 0.091 0.011 0.113 0.032s0.034 0.049 0.034 0.085c0 0.036-0.011 0.062-0.034 0.085s-0.060 0.032-0.113 0.032h-0.299v1.211h1.476v-1.211h-0.297c-0.053 0-0.091-0.011-0.113-0.032s-0.034-0.049-0.034-0.085c0-0.036 0.011-0.063 0.034-0.085 0.023-0.021 0.061-0.032 0.115-0.032h0.66c0.055 0 0.094 0.011 0.117 0.032s0.034 0.049 0.034 0.085c0 0.036-0.011 0.062-0.034 0.085s-0.062 0.032-0.117 0.032h-0.138v2.782h0.251c0.053 0 0.091 0.011 0.113 0.032s0.034 0.049 0.034 0.085c0 0.034-0.011 0.061-0.034 0.084s-0.061 0.034-0.113 0.034h-0.773c-0.053 0-0.091-0.011-0.113-0.034s-0.034-0.049-0.034-0.084c0-0.036 0.011-0.062 0.034-0.085 0.023-0.021 0.060-0.032 0.115-0.032h0.297v-1.338h-0.004z"></path>
<path d="M46.121 30.122h-1.463l-0.299 0.853h0.427c0.053 0 0.091 0.011 0.113 0.032s0.034 0.049 0.034 0.085c0 0.034-0.011 0.061-0.034 0.083s-0.061 0.034-0.113 0.034h-0.832c-0.053 0-0.091-0.011-0.113-0.034s-0.034-0.049-0.034-0.083c0-0.036 0.011-0.063 0.034-0.085 0.023-0.021 0.060-0.032 0.113-0.032h0.172l0.983-2.782h-0.658c-0.053 0-0.091-0.012-0.113-0.032s-0.034-0.049-0.034-0.085 0.011-0.063 0.034-0.085c0.023-0.021 0.060-0.032 0.113-0.032h1.121l1.087 3.015h0.172c0.053 0 0.091 0.011 0.113 0.032s0.034 0.049 0.034 0.085c0 0.034-0.011 0.061-0.034 0.084s-0.060 0.034-0.113 0.034h-0.83c-0.055 0-0.095-0.011-0.117-0.034s-0.034-0.049-0.034-0.084c0-0.036 0.011-0.062 0.034-0.085 0.023-0.021 0.062-0.032 0.117-0.032h0.423l-0.304-0.851zM46.036 29.889l-0.614-1.696h-0.081l-0.595 1.696h1.291z"></path>
</svg>
